<?xml version="1.0" standalone="no"?>
<!DOCTYPE svg PUBLIC "-//W3C//DTD SVG 20010904//EN"
 "http://www.w3.org/TR/2001/REC-SVG-20010904/DTD/svg10.dtd">
<svg version="1.0" xmlns="http://www.w3.org/2000/svg"
 width="1700.000000pt" height="653.000000pt" viewBox="0 0 1700.000000 653.000000"
 preserveAspectRatio="xMidYMid meet">

<g transform="translate(0.000000,653.000000) scale(0.100000,-0.100000)"
fill="#000000" stroke="none">
<path d="M9475 6504 c-42 -21 -92 -72 -120 -119 -13 -22 -97 -231 -185 -465
-89 -234 -164 -427 -166 -429 -2 -2 -24 15 -49 38 -190 175 -522 167 -716 -17
-38 -35 -82 -87 -98 -116 -29 -52 -359 -913 -381 -996 -18 -65 -15 -186 4
-255 57 -196 257 -335 481 -335 137 1 291 51 382 126 l44 36 44 -41 c53 -49
164 -106 248 -128 46 -11 89 -14 167 -10 125 6 205 29 311 90 l76 43 49 -45
c164 -150 493 -204 732 -121 74 26 182 100 236 162 l42 48 40 -13 c148 -53
356 -43 519 26 129 54 285 181 367 300 55 81 110 199 116 252 10 93 -44 170
-136 195 -49 13 -89 7 -144 -21 -43 -22 -72 -58 -119 -149 -49 -93 -136 -183
-217 -222 -59 -29 -76 -33 -152 -33 l-85 0 -3 57 c-3 51 0 59 22 73 54 36 158
230 211 395 61 190 22 376 -109 517 -64 69 -138 116 -249 157 -77 28 -91 30
-232 30 -115 1 -165 -3 -215 -17 -148 -41 -286 -131 -370 -242 -28 -37 -102
-180 -194 -375 -184 -389 -211 -452 -227 -531 -11 -54 -19 -69 -58 -107 -135
-129 -301 -130 -301 -1 0 17 165 470 367 1008 354 942 367 978 367 1048 1 64
-2 76 -29 114 -41 58 -103 88 -180 89 -35 0 -72 -7 -90 -16z m-756 -1270 c32
-23 61 -90 61 -144 0 -66 -21 -139 -104 -355 -86 -223 -120 -294 -170 -352
-38 -44 -124 -93 -163 -93 -36 0 -83 28 -93 56 -27 70 -22 88 185 648 50 134
88 195 144 233 41 27 106 30 140 7z m1746 -75 c22 -6 54 -26 71 -45 53 -56 51
-108 -14 -271 l-36 -93 -56 0 c-87 0 -147 -25 -211 -89 -65 -65 -92 -132 -91
-222 1 -68 18 -112 62 -162 l32 -37 -28 -41 c-15 -22 -48 -52 -73 -67 -39 -23
-58 -27 -121 -27 -83 0 -116 14 -147 61 -33 51 -23 107 44 244 34 69 73 161
87 205 28 85 165 389 201 442 30 45 70 74 129 95 60 20 96 22 151 7z"/>
<path d="M13464 5979 c-29 -11 -72 -39 -96 -62 -48 -45 -1392 -2132 -1415
-2197 -38 -108 15 -221 132 -276 100 -47 224 -23 302 58 17 18 113 164 213
323 100 160 184 292 186 294 2 2 14 -9 26 -25 75 -99 212 -190 346 -230 117
-35 287 -37 407 -5 196 52 364 167 483 329 77 105 466 710 501 779 107 214 72
460 -88 618 -93 92 -179 140 -322 181 -78 23 -104 26 -192 22 -56 -3 -111 -9
-121 -13 -13 -6 -17 -5 -12 3 3 6 1 32 -5 57 -32 128 -202 199 -345 144z m450
-589 c62 -24 107 -69 126 -126 17 -52 7 -148 -22 -215 -40 -89 -368 -600 -418
-649 -66 -67 -129 -94 -215 -94 -80 1 -125 17 -179 64 -56 50 -80 103 -80 180
0 36 6 76 14 90 44 82 408 651 434 678 17 18 57 46 90 62 74 38 166 41 250 10z"/>
<path d="M2255 5808 c-84 -29 -139 -101 -160 -209 -22 -111 -208 -2330 -203
-2419 3 -50 12 -89 25 -115 99 -191 352 -155 407 58 9 36 37 308 65 642 53
624 53 622 119 724 65 98 153 141 218 106 60 -32 60 -33 24 -487 -29 -359 -32
-421 -21 -487 40 -259 244 -408 519 -381 169 17 333 97 439 214 l49 53 35 -18
c112 -60 288 -83 427 -55 111 22 212 58 280 98 88 52 183 152 223 236 l34 71
65 1 c36 0 85 5 110 10 25 4 46 7 48 5 2 -1 -42 -191 -98 -422 -55 -230 -100
-430 -100 -443 0 -119 89 -199 220 -200 107 0 198 55 234 140 8 20 54 211 101
425 48 215 88 391 90 393 1 1 22 -7 47 -18 123 -54 339 -62 613 -20 578 86
916 370 1071 897 42 143 21 223 -70 264 -124 56 -258 -17 -301 -163 -50 -168
-114 -284 -220 -396 -57 -61 -212 -178 -222 -168 -2 2 41 185 96 407 55 222
105 433 111 469 28 153 -32 315 -157 430 -66 60 -111 85 -196 106 -115 30
-294 0 -364 -61 l-27 -22 -15 30 c-37 74 -184 102 -289 57 -65 -28 -124 -92
-145 -156 -9 -27 -71 -276 -137 -554 l-120 -505 -37 -33 c-46 -40 -125 -79
-179 -88 l-42 -6 -15 52 c-15 51 -15 54 8 89 40 60 73 208 90 406 13 148 -44
304 -149 409 -73 73 -134 107 -241 137 -111 30 -293 24 -410 -14 -224 -74
-412 -255 -470 -454 -8 -27 -41 -217 -75 -423 -47 -290 -61 -398 -61 -478 0
-96 -2 -105 -30 -155 -59 -100 -133 -157 -204 -157 -45 0 -73 15 -84 44 -6 14
4 174 25 422 18 219 34 426 34 459 0 119 -43 224 -127 316 -139 150 -355 182
-553 82 l-75 -38 22 285 c12 157 22 326 22 375 1 83 -2 94 -30 143 -24 43 -40
58 -82 78 -55 25 -112 30 -162 12z m3709 -642 c41 -17 74 -58 82 -102 7 -38
-21 -176 -122 -598 -36 -151 -74 -287 -87 -310 -62 -113 -213 -150 -287 -71
-45 48 -40 92 64 544 56 241 104 427 116 445 55 89 150 127 234 92z m-1567
-242 c55 -42 64 -88 50 -260 l-8 -102 -42 -6 c-84 -14 -169 -85 -210 -175 -15
-33 -21 -67 -21 -121 0 -64 4 -83 29 -130 18 -31 49 -69 75 -88 25 -19 46 -40
48 -47 5 -22 -45 -110 -77 -138 -47 -39 -113 -60 -171 -55 -61 6 -92 32 -116
95 -15 40 -16 49 -1 126 22 112 37 229 37 285 0 84 66 466 88 508 63 123 227
178 319 108z"/>
<path d="M834 5395 c-33 -7 -96 -28 -139 -46 -404 -168 -595 -606 -418 -959
28 -55 60 -97 123 -160 98 -98 164 -145 423 -299 290 -173 371 -241 430 -357
125 -247 -45 -544 -341 -594 -89 -15 -174 -1 -253 41 -65 35 -106 79 -137 149
-11 25 -33 74 -48 109 -49 109 -136 161 -246 147 -60 -8 -94 -24 -143 -68 -72
-63 -96 -149 -70 -250 36 -143 128 -289 240 -381 82 -68 154 -107 276 -149 92
-32 98 -32 264 -32 141 -1 184 3 255 21 351 89 638 369 732 715 33 121 32 318
-4 434 -38 127 -99 224 -208 334 -112 113 -214 184 -451 316 -198 110 -246
143 -311 212 -109 116 -116 213 -24 310 50 54 100 75 165 70 70 -5 115 -27
186 -89 72 -63 105 -79 169 -86 136 -14 259 111 243 246 -14 116 -118 241
-258 310 -46 23 -115 48 -154 56 -86 18 -219 18 -301 0z"/>
<path d="M16659 4842 c-46 -24 -92 -72 -318 -334 l-264 -306 -71 30 c-76 32
-161 45 -220 34 -76 -14 -145 -107 -146 -194 0 -77 29 -111 123 -147 31 -12
46 -23 43 -31 -3 -7 -134 -166 -293 -354 l-287 -340 -77 -30 c-99 -38 -145
-48 -260 -56 -316 -21 -604 171 -559 372 12 52 37 99 69 128 20 18 22 17 76
-32 69 -64 138 -103 240 -138 147 -50 334 -35 480 38 231 114 380 368 347 593
-21 146 -93 269 -206 353 -286 210 -643 197 -904 -33 -69 -62 -460 -582 -508
-678 -112 -221 -76 -455 97 -641 133 -142 326 -249 549 -305 161 -39 427 -45
549 -11 55 15 58 14 93 -52 48 -92 163 -203 263 -255 158 -82 316 -113 476
-93 259 31 535 194 745 439 75 87 90 123 74 180 -20 74 -94 129 -186 138 -73
8 -147 -28 -212 -103 -96 -112 -254 -224 -369 -263 -90 -30 -210 -29 -280 3
-69 33 -103 83 -103 153 0 64 -17 41 357 480 158 186 287 339 288 341 1 1 57
-18 124 -43 148 -55 201 -58 280 -19 62 31 101 84 108 147 10 82 -33 131 -156
180 -45 19 -83 36 -84 38 -1 3 94 119 212 259 118 140 221 271 229 290 19 46
19 128 -1 165 -59 115 -201 158 -318 97z m-1627 -673 c85 -61 76 -195 -20
-281 -45 -41 -88 -53 -161 -46 -50 5 -141 42 -180 75 l-25 20 74 97 c41 54 87
107 103 118 71 51 152 57 209 17z"/>
<path d="M7575 2637 c-188 -63 -309 -251 -322 -502 -14 -258 94 -483 272 -567
61 -28 73 -30 143 -26 136 8 248 90 317 232 54 110 70 183 69 321 -1 185 -45
316 -145 429 -88 98 -232 146 -334 113z"/>
<path d="M8495 2637 c-188 -62 -309 -250 -322 -502 -14 -257 95 -484 272 -567
61 -28 73 -30 143 -26 171 10 296 130 363 348 31 97 33 289 5 390 -42 154
-131 277 -239 329 -74 36 -163 47 -222 28z"/>
<path d="M6789 1815 c-68 -22 -140 -91 -174 -167 -53 -117 -45 -280 21 -416
38 -78 127 -170 199 -204 74 -35 175 -39 241 -9 134 61 204 216 182 401 -32
265 -264 461 -469 395z"/>
<path d="M9261 1814 c-89 -31 -169 -101 -224 -195 -132 -225 -76 -517 115
-599 74 -32 182 -25 256 15 151 82 253 283 239 470 -17 232 -197 375 -386 309z"/>
<path d="M7978 1490 c-416 -75 -800 -502 -884 -981 -37 -211 4 -358 119 -438
99 -68 268 -81 502 -41 403 71 391 70 674 20 246 -43 349 -53 445 -39 237 32
338 178 306 445 -44 371 -291 750 -606 930 -41 23 -118 56 -172 74 -84 28
-113 33 -217 36 -66 2 -141 -1 -167 -6z"/>
</g>
</svg>
