<?xml version="1.0" standalone="no"?>
<!DOCTYPE svg PUBLIC "-//W3C//DTD SVG 20010904//EN"
 "http://www.w3.org/TR/2001/REC-SVG-20010904/DTD/svg10.dtd">
<svg version="1.0" xmlns="http://www.w3.org/2000/svg"
 width="1584.000000pt" height="849.000000pt" viewBox="0 0 1584.000000 849.000000"
 preserveAspectRatio="xMidYMid meet">

<g transform="translate(0.000000,849.000000) scale(0.100000,-0.100000)"
fill="#000000" stroke="none">
<path d="M993 5433 c3 -2065 4 -2233 20 -2298 68 -277 177 -477 361 -661 185
-185 400 -301 666 -361 68 -15 199 -17 1317 -20 1351 -4 1333 -5 1528 52 281
82 538 271 706 519 l36 53 74 -100 c162 -219 378 -374 642 -462 201 -67 182
-66 1562 -62 1371 3 1271 -1 1479 68 410 136 736 489 841 909 38 151 45 263
45 712 l0 423 -1143 1143 -1142 1142 -130 -130 -130 -130 1088 -1088 1087
-1087 0 -327 c0 -179 -5 -372 -11 -428 -21 -207 -104 -390 -243 -538 -44 -46
-107 -103 -141 -127 -84 -60 -213 -120 -315 -147 l-85 -23 -1250 0 -1250 0
-85 23 c-260 69 -487 249 -605 482 -42 83 -81 208 -90 285 -3 33 -8 77 -11 98
l-6 37 -184 0 -184 0 0 -48 c0 -107 -38 -247 -100 -372 -119 -238 -342 -415
-607 -483 l-88 -22 -1245 0 c-1156 0 -1250 1 -1314 18 -324 83 -571 307 -676
613 -52 148 -50 80 -50 2210 l0 1984 930 0 930 0 0 -1945 0 -1945 185 0 185 0
0 1945 0 1945 925 0 925 0 0 185 0 185 -2225 0 -2225 0 3 -2227z"/>
<path d="M6620 7653 c-199 -21 -415 -102 -598 -224 -101 -68 -294 -262 -361
-364 -94 -144 -154 -286 -194 -460 -18 -82 -20 -132 -24 -575 l-4 -485 1143
-1143 1143 -1142 130 130 130 130 -1088 1088 -1087 1087 0 327 c0 179 5 372
10 428 41 394 309 705 700 812 l85 23 1245 0 1245 0 89 -23 c107 -27 236 -86
319 -146 76 -54 189 -171 242 -251 72 -110 129 -265 141 -385 3 -30 7 -70 10
-87 l5 -33 184 0 185 0 0 48 c0 107 38 247 100 372 119 238 342 415 607 483
l88 22 1245 0 c1156 0 1250 -1 1314 -18 354 -91 606 -342 703 -698 16 -58 17
-160 20 -1156 l4 -1093 -931 0 -930 0 0 1020 0 1020 -185 0 -185 0 0 -1950 0
-1950 -925 0 -925 0 0 -185 0 -185 1110 0 1110 0 2 928 3 927 1113 3 1113 2
-4 1298 c-4 1423 1 1320 -64 1517 -142 438 -513 766 -983 872 -68 15 -199 17
-1317 20 -1058 3 -1256 1 -1340 -11 -371 -56 -687 -255 -895 -561 l-36 -55
-55 78 c-190 269 -460 446 -807 528 -69 17 -166 18 -1320 20 -685 0 -1261 -1
-1280 -3z"/>
<path d="M2506 1659 c-20 -16 -26 -29 -26 -59 0 -49 35 -80 90 -80 55 0 85 28
85 80 0 32 -6 47 -24 61 -31 26 -91 25 -125 -2z"/>
<path d="M5026 1659 c-37 -29 -37 -89 0 -118 34 -27 94 -28 125 -2 18 14 24
29 24 61 0 32 -6 47 -24 61 -31 26 -91 25 -125 -2z"/>
<path d="M5682 1525 c2 -85 2 -155 2 -155 -1 0 -16 13 -34 30 -85 80 -248 59
-314 -40 -54 -82 -71 -228 -41 -345 30 -114 90 -172 190 -182 64 -7 129 14
165 52 31 33 36 32 50 -10 l12 -35 64 0 64 0 0 420 0 420 -80 0 -81 0 3 -155z
m-68 -215 c58 -22 88 -132 67 -238 -14 -69 -43 -101 -98 -109 -89 -12 -133 45
-133 173 0 145 64 213 164 174z"/>
<path d="M6992 1525 c2 -85 2 -155 2 -155 -1 0 -16 13 -34 30 -85 80 -248 59
-314 -40 -54 -82 -71 -228 -41 -345 30 -114 90 -172 190 -182 64 -7 129 14
165 52 31 33 36 32 50 -10 l12 -35 64 0 64 0 0 420 0 420 -80 0 -81 0 3 -155z
m-68 -215 c58 -22 88 -132 67 -238 -14 -69 -43 -101 -98 -109 -89 -12 -133 45
-133 173 0 145 64 213 164 174z"/>
<path d="M8542 1525 c2 -85 2 -155 2 -155 -1 0 -16 13 -34 30 -85 80 -248 59
-314 -40 -54 -82 -71 -228 -41 -345 30 -114 90 -172 190 -182 64 -7 129 14
165 52 31 33 36 32 50 -10 l12 -35 64 0 64 0 0 420 0 420 -80 0 -81 0 3 -155z
m-68 -215 c58 -22 88 -132 67 -238 -14 -69 -43 -101 -98 -109 -89 -12 -133 45
-133 173 0 145 64 213 164 174z"/>
<path d="M10424 1664 c-33 -16 -68 -69 -79 -121 l-7 -33 41 0 c35 0 43 4 53
25 18 41 53 42 125 5 78 -39 128 -38 174 6 23 22 59 103 59 131 0 2 -20 3 -45
3 -31 0 -45 -4 -45 -13 0 -19 -33 -47 -54 -47 -9 0 -43 14 -76 30 -66 33 -100
37 -146 14z"/>
<path d="M13860 1260 l0 -420 80 0 80 0 0 420 0 420 -80 0 -80 0 0 -420z"/>
<path d="M9874 1631 c-110 -28 -174 -109 -174 -220 1 -100 54 -163 202 -237
136 -69 165 -111 114 -171 -23 -26 -29 -28 -98 -27 -66 0 -112 11 -211 50 -16
6 -18 0 -15 -72 l3 -78 50 -20 c77 -30 252 -29 320 2 27 13 61 33 74 45 84 77
80 246 -8 320 -18 15 -77 50 -132 78 -94 48 -139 85 -139 115 0 26 23 62 47
73 33 15 79 14 143 -5 30 -8 64 -17 76 -20 17 -5 24 4 47 57 15 34 26 63 24
65 -1 1 -31 12 -67 25 -69 23 -202 34 -256 20z"/>
<path d="M992 1338 c3 -284 4 -295 27 -346 45 -99 132 -151 266 -160 152 -9
267 45 323 152 l27 51 3 298 3 297 -85 0 -86 0 0 -270 c0 -294 -6 -332 -56
-365 -40 -26 -117 -31 -169 -10 -78 29 -80 37 -83 363 l-3 282 -85 0 -85 0 3
-292z"/>
<path d="M11870 1235 l0 -395 85 0 85 0 0 139 0 138 88 5 c179 10 268 85 280
235 7 88 -12 148 -63 198 -60 60 -122 75 -318 75 l-157 0 0 -395z m315 241
c41 -18 55 -42 55 -99 0 -78 -53 -117 -157 -117 l-43 0 0 115 0 115 55 0 c31
0 71 -6 90 -14z"/>
<path d="M2036 1435 c-21 -7 -53 -28 -71 -45 l-33 -32 -9 39 -9 38 -62 3 -62
3 0 -301 0 -300 80 0 80 0 0 173 c0 183 8 232 43 272 26 31 85 43 126 26 49
-21 55 -47 59 -268 l4 -203 79 0 79 0 0 218 c0 233 -6 274 -47 323 -54 63
-165 87 -257 54z"/>
<path d="M3540 1435 c-107 -34 -169 -128 -177 -268 -8 -114 13 -183 74 -248
63 -67 111 -84 243 -84 78 0 117 5 153 18 l47 19 0 63 0 63 -52 -20 c-74 -28
-173 -35 -220 -15 -42 18 -78 68 -78 110 l0 27 190 0 190 0 0 74 c0 123 -42
200 -135 249 -52 26 -171 33 -235 12z m154 -115 c28 -10 51 -42 61 -82 l7 -28
-117 0 -117 0 7 28 c19 77 84 111 159 82z"/>
<path d="M4275 1431 c-22 -10 -55 -34 -72 -54 -35 -40 -43 -44 -43 -24 0 6 -5
29 -11 50 l-10 37 -59 0 -60 0 0 -300 0 -300 80 0 80 0 0 173 c0 149 3 177 19
207 25 48 69 72 139 75 l57 2 6 69 c3 38 4 72 2 77 -7 14 -88 7 -128 -12z"/>
<path d="M4570 1435 c-26 -8 -60 -30 -80 -50 -33 -34 -35 -40 -35 -103 0 -97
18 -117 163 -189 102 -51 117 -61 120 -85 7 -62 -97 -75 -230 -29 l-58 20 0
-68 0 -68 48 -14 c26 -8 92 -14 152 -14 92 0 111 3 154 25 28 14 59 37 69 51
38 53 39 154 1 207 -12 16 -64 49 -132 83 -133 65 -149 81 -116 113 21 22 79
20 155 -4 35 -10 67 -16 70 -12 4 4 16 28 27 54 20 46 20 48 2 58 -71 38 -227
50 -310 25z"/>
<path d="M6125 1440 c-22 -4 -59 -16 -82 -25 l-42 -17 27 -54 c22 -46 30 -54
47 -49 66 22 123 35 147 35 59 0 98 -38 98 -95 0 -24 -3 -25 -57 -25 -145 0
-247 -35 -291 -100 -21 -30 -23 -44 -20 -107 4 -85 23 -117 88 -151 80 -40
189 -26 260 35 l39 34 12 -41 12 -40 59 0 58 0 0 225 c0 278 -9 308 -105 357
-45 23 -181 33 -250 18z m195 -365 c0 -51 -26 -94 -65 -111 -76 -31 -139 -5
-137 56 1 59 50 87 155 89 l47 1 0 -35z"/>
<path d="M7440 1435 c-107 -34 -169 -128 -177 -268 -8 -114 13 -183 74 -248
63 -67 111 -84 243 -84 78 0 117 5 153 18 l47 19 0 63 0 63 -52 -20 c-74 -28
-173 -35 -220 -15 -42 18 -78 68 -78 110 l0 27 190 0 190 0 0 74 c0 123 -42
200 -135 249 -52 26 -171 33 -235 12z m154 -115 c28 -10 51 -42 61 -82 l7 -28
-117 0 -117 0 7 28 c19 77 84 111 159 82z"/>
<path d="M8990 1435 c-107 -34 -169 -128 -177 -268 -8 -114 13 -183 74 -248
63 -67 111 -84 243 -84 78 0 117 5 153 18 l47 19 0 63 0 63 -52 -20 c-74 -28
-173 -35 -220 -15 -42 18 -78 68 -78 110 l0 27 190 0 190 0 0 74 c0 123 -42
200 -135 249 -52 26 -171 33 -235 12z m154 -115 c28 -10 51 -42 61 -82 l7 -28
-117 0 -117 0 7 28 c19 77 84 111 159 82z"/>
<path d="M10445 1440 c-22 -4 -59 -16 -82 -25 l-42 -17 27 -54 c22 -46 30 -54
47 -49 66 22 123 35 147 35 59 0 98 -38 98 -95 0 -24 -3 -25 -57 -25 -145 0
-247 -35 -291 -100 -21 -30 -23 -44 -20 -107 4 -85 23 -117 88 -151 79 -40
189 -26 259 34 l38 33 16 -39 c15 -40 15 -40 71 -40 l56 0 0 225 c0 278 -9
308 -105 357 -45 23 -181 33 -250 18z m195 -365 c0 -51 -26 -94 -65 -111 -77
-32 -135 -8 -135 55 0 61 45 88 153 90 l47 1 0 -35z"/>
<path d="M11115 1441 c-130 -34 -205 -142 -205 -295 0 -100 26 -173 84 -232
64 -66 134 -90 238 -81 173 15 267 136 256 331 -7 131 -59 215 -158 259 -49
22 -164 32 -215 18z m139 -133 c44 -19 59 -56 64 -146 7 -136 -31 -202 -118
-202 -80 0 -120 60 -120 180 0 119 39 179 117 180 18 0 43 -5 57 -12z"/>
<path d="M12665 1440 c-22 -4 -59 -16 -82 -25 l-42 -17 27 -54 c22 -46 30 -54
47 -49 66 22 123 35 147 35 59 0 98 -38 98 -95 0 -24 -3 -25 -57 -25 -145 0
-247 -35 -291 -100 -21 -30 -23 -44 -20 -107 4 -85 23 -117 88 -151 80 -40
189 -26 260 35 l39 34 12 -41 12 -40 59 0 58 0 0 225 c0 278 -9 308 -105 357
-45 23 -181 33 -250 18z m195 -365 c0 -51 -26 -94 -65 -111 -76 -31 -139 -5
-137 56 1 59 50 87 155 89 l47 1 0 -35z"/>
<path d="M14335 1441 c-130 -34 -205 -142 -205 -295 0 -100 26 -173 84 -232
64 -66 134 -90 238 -81 173 15 267 136 256 331 -7 131 -59 215 -158 259 -49
22 -164 32 -215 18z m139 -133 c44 -19 59 -56 64 -146 7 -136 -31 -202 -118
-202 -80 0 -120 60 -120 180 0 119 39 179 117 180 18 0 43 -5 57 -12z"/>
<path d="M2490 1140 l0 -300 80 0 80 0 0 300 0 300 -80 0 -80 0 0 -300z"/>
<path d="M2735 1373 c14 -37 65 -171 113 -298 l88 -230 85 -3 86 -3 111 293
c62 161 112 296 112 301 0 4 -37 7 -83 7 l-83 0 -67 -198 c-37 -108 -67 -211
-68 -227 0 -20 -8 -4 -24 50 -12 44 -45 145 -72 225 l-50 145 -86 3 -87 3 25
-68z"/>
<path d="M5010 1140 l0 -300 80 0 80 0 0 300 0 300 -80 0 -80 0 0 -300z"/>
<path d="M13160 1227 c0 -248 9 -297 65 -346 81 -70 223 -69 304 4 l38 35 12
-40 12 -40 64 0 65 0 0 300 0 300 -85 0 -85 0 0 -177 c0 -98 -5 -194 -10 -214
-14 -50 -50 -80 -103 -86 -36 -4 -48 -1 -73 20 l-29 25 -3 216 -3 216 -85 0
-84 0 0 -213z"/>
</g>
</svg>
